<?xml version="1.0" encoding="UTF-8" standalone="no"?>
<!-- Created with Inkscape (http://www.inkscape.org/) -->

<svg
   xmlns:dc="http://purl.org/dc/elements/1.1/"
   xmlns:cc="http://creativecommons.org/ns#"
   xmlns:rdf="http://www.w3.org/1999/02/22-rdf-syntax-ns#"
   xmlns:svg="http://www.w3.org/2000/svg"
   xmlns="http://www.w3.org/2000/svg"
   xmlns:xlink="http://www.w3.org/1999/xlink"
   version="1.2"
   width="96"
   height="96"
   viewBox="0 0 96 96"
   id="ORANGE_BACKGROUNDS"
   xml:space="preserve">

 <defs id="defs3067">
  <linearGradient x1="48" y1="8.0107002" x2="48" y2="87.989998" id="linearGradient5092" gradientUnits="userSpaceOnUse">
   <stop id="stop4204" style="stop-color:#f107e7;stop-opacity:1" offset="0.0364" />
   <stop id="stop4206" style="stop-color:#d607c9;stop-opacity:1" offset="0.219" />
   <stop id="stop4208" style="stop-color:#ba07ac;stop-opacity:1" offset="0.52689999" />
   <stop id="stop4210" style="stop-color:#99078f;stop-opacity:1" offset="0.69090003" />
   <stop id="stop4212" style="stop-color:#830772;stop-opacity:1" offset="1" />
  </linearGradient>
 <linearGradient
   x1="78.683998"
   y1="10.755"
   x2="114.49"
   y2="10.755"
   id="linearGradient1417-1"
   gradientUnits="userSpaceOnUse"
   gradientTransform="scale(0.66452659,1.5048307)">
       gradientTransform=&quot;translate(-13.32707,-18.22025)&quot;
       gradientUnits=&quot;userSpaceOnUse&quot;
       x1=&quot;57.073624&quot;
       x2=&quot;103.28809&quot;
       <stop
   id="stop14"
   style="stop-color:#949494;stop-opacity:1"
   offset="0" /><stop
   id="stop16"
   style="stop-color:#949494;stop-opacity:0"
   offset="1" />
       y1=&quot;27.309885&quot;
       y2=&quot;104.58656&quot; 
    </linearGradient><linearGradient
   x1="82.781998"
   y1="19.25"
   x2="117.36"
   y2="19.25"
   id="linearGradient1419-7"
   gradientUnits="userSpaceOnUse"
   gradientTransform="scale(0.63033615,1.5864551)">
       gradientTransform=&quot;matrix(0.998424,5.612358e-2,-5.612358e-2,0.998424,-11.4001,-7.493561)&quot;
       gradientUnits=&quot;userSpaceOnUse&quot;
       x1=&quot;57.073624&quot;
       x2=&quot;103.28809&quot;
       <stop
   id="stop3018-4"
   style="stop-color:#949494;stop-opacity:1"
   offset="0" /><stop
   id="stop3020-0"
   style="stop-color:#949494;stop-opacity:0"
   offset="1" />
       y1=&quot;27.309885&quot;
       y2=&quot;104.58656&quot; 
    </linearGradient><radialGradient
   cx="20.131001"
   cy="87.775002"
   r="9.0261002"
   id="radialGradient1421-9"
   gradientUnits="userSpaceOnUse"
   gradientTransform="scale(1.0090249,0.9910558)">
       cx=&quot;16.073729&quot;
       cy=&quot;98.385017&quot;
       fx=&quot;16.073729&quot;
       fy=&quot;98.385017&quot;
       gradientTransform=&quot;matrix(2.277654,1.814482,-1.554691,2.313904,132.3066,-174.3013)&quot;
       gradientUnits=&quot;userSpaceOnUse&quot;
       <stop
   id="stop10767-4"
   style="stop-color:#989898;stop-opacity:1"
   offset="0" /><stop
   id="stop10769-8"
   style="stop-color:#989898;stop-opacity:0"
   offset="1" />
       r=&quot;7.3950380&quot;
    </radialGradient><linearGradient
   x1="99.148003"
   y1="3.9582"
   x2="125.82"
   y2="3.9582"
   id="linearGradient3041"
   gradientUnits="userSpaceOnUse"
   gradientTransform="scale(0.38439377,2.601499)"><stop
     id="stop10796-2"
     style="stop-color:#989898;stop-opacity:1"
     offset="0" /><stop
     id="stop10798-4"
     style="stop-color:#989898;stop-opacity:1"
     offset="1" /></linearGradient><linearGradient
   x1="78.683998"
   y1="10.755"
   x2="114.49"
   y2="10.755"
   id="linearGradient1417-1-1"
   gradientUnits="userSpaceOnUse"
   gradientTransform="scale(0.66452659,1.5048307)">
       gradientTransform=&quot;translate(-13.32707,-18.22025)&quot;
       gradientUnits=&quot;userSpaceOnUse&quot;
       x1=&quot;57.073624&quot;
       x2=&quot;103.28809&quot;
       <stop
   id="stop14-7"
   style="stop-color:#949494;stop-opacity:1"
   offset="0" /><stop
   id="stop16-4"
   style="stop-color:#949494;stop-opacity:0"
   offset="1" />

       y1=&quot;27.309885&quot;
       y2=&quot;104.58656&quot; 
    </linearGradient><linearGradient
   x1="82.781998"
   y1="19.25"
   x2="117.36"
   y2="19.25"
   id="linearGradient1419-7-0"
   gradientUnits="userSpaceOnUse"
   gradientTransform="scale(0.63033615,1.5864551)">
       gradientTransform=&quot;matrix(0.998424,5.612358e-2,-5.612358e-2,0.998424,-11.4001,-7.493561)&quot;
       gradientUnits=&quot;userSpaceOnUse&quot;
       x1=&quot;57.073624&quot;
       x2=&quot;103.28809&quot;
       <stop
   id="stop3018-4-9"
   style="stop-color:#949494;stop-opacity:1"
   offset="0" /><stop
   id="stop3020-0-4"
   style="stop-color:#949494;stop-opacity:0"
   offset="1" />

       y1=&quot;27.309885&quot;
       y2=&quot;104.58656&quot; 
    </linearGradient><radialGradient
   cx="20.131001"
   cy="87.775002"
   r="9.0261002"
   id="radialGradient1421-9-8"
   gradientUnits="userSpaceOnUse"
   gradientTransform="scale(1.0090249,0.9910558)">
       cx=&quot;16.073729&quot;
       cy=&quot;98.385017&quot;
       fx=&quot;16.073729&quot;
       fy=&quot;98.385017&quot;
       gradientTransform=&quot;matrix(2.277654,1.814482,-1.554691,2.313904,132.3066,-174.3013)&quot;
       gradientUnits=&quot;userSpaceOnUse&quot;
       <stop
   id="stop10767-4-8"
   style="stop-color:#989898;stop-opacity:1"
   offset="0" /><stop
   id="stop10769-8-2"
   style="stop-color:#989898;stop-opacity:0"
   offset="1" />

       r=&quot;7.3950380&quot;
    </radialGradient><linearGradient
   x1="99.148003"
   y1="3.9582"
   x2="125.82"
   y2="3.9582"
   id="linearGradient3041-4"
   gradientUnits="userSpaceOnUse"
   gradientTransform="scale(0.38439377,2.601499)"><stop
     id="stop10796-2-5"
     style="stop-color:#989898;stop-opacity:1"
     offset="0" /><stop
     id="stop10798-4-5"
     style="stop-color:#989898;stop-opacity:1"
     offset="1" /></linearGradient><linearGradient
   x1="99.148003"
   y1="3.9582"
   x2="125.82"
   y2="3.9582"
   id="linearGradient3069"
   xlink:href="#linearGradient3041-4"
   gradientUnits="userSpaceOnUse"
   gradientTransform="scale(0.38439377,2.601499)" /></defs>
 <g
   id="layer5">
  <rect
   width="96"
   height="96"
   x="0"
   y="0"
   id="rect3119"
   style="fill-opacity:0" />
 </g>
 <g
   id="layer4">
  <path
   d="m 88.023,49 c 0,29.633 -10.364,40 -40,40 -29.635,0 -40,-10.367 -40,-40 0,-29.634 10.366,-40 40,-40 29.636,0 40,10.365 40,40 z"
   id="SHADOW"
   style="opacity:0.4" />
 </g>
 <g
   id="layer20">
  <g
   id="GREEN_BACKGROUNDS-1">
   <g
   id="GREEN1">
    <path
   d="m 8,47.989 c 0,29.633 10.365,40 40,40 29.637,0 40,-10.367 40,-40 C 88,19.004 78.074,8.459 49.909,8.01 H 46.092 C 17.928,8.459 8,19.004 8,47.989 z"
   id="GREEN_1_2_"
   style="fill:url(#linearGradient5092);fill-rule:evenodd" />
    <linearGradient
   x1="48"
   y1="8"
   x2="48"
   y2="88.000999"
   id="HIGHLIGHT_GR1_1_"
   gradientUnits="userSpaceOnUse">
     <stop
   id="stop4216"
   style="stop-color:#ffffff;stop-opacity:1"
   offset="0.0364" />
     <stop
   id="stop4218"
   style="stop-color:#f7f9f5;stop-opacity:1"
   offset="0.1274" />
     <stop
   id="stop4220"
   style="stop-color:#e1eadb;stop-opacity:1"
   offset="0.28150001" />
     <stop
   id="stop4222"
   style="stop-color:#bed1af;stop-opacity:1"
   offset="0.4799" />
     <stop
   id="stop4224"
   style="stop-color:#8daf73;stop-opacity:1"
   offset="0.71469998" />
     <stop
   id="stop4226"
   style="stop-color:#4f8428;stop-opacity:1"
   offset="0.97780001" />
     <stop
   id="stop4228"
   style="stop-color:#4a8021;stop-opacity:1"
   offset="1" />
    </linearGradient>
    <path
   d="M 48,8 C 18.365,8 8,18.365 8,48 8,77.633 18.365,88 48,88 77.637,88 88,77.633 88,48 88,18.365 77.637,8 48,8 z m 0,79.023 C 18.842,87.023 9,77.176 9,48 9,18.824 18.842,8.977 48,8.977 77.158,8.977 87,18.824 87,48 87,77.176 77.158,87.023 48,87.023 z"
   id="HIGHLIGHT_GR1"
   style="opacity:0.25;fill:url(#HIGHLIGHT_GR1_1_)" />
   </g>
  </g>
 </g>
<g
   transform="matrix(1.5357075,0,0,1.6184899,19.688044,3.6511698)"
   id="g3029"><path
     d="m 20.055119,0.03543307 c -0.248032,0 -0.46063,0.10629922 -0.602363,0.28346458 1.736221,4.00393715 2.444882,9.63779565 2.338583,12.75590635 -0.177165,5.811024 -0.779527,10.027559 -1.629921,14.952756 -0.814961,4.783465 -2.515748,9.1063 -4.03937,13.570867 -1.098426,3.57874 -3.401575,0.03543 -5.06693,-0.708662 -2.3740154,-1.062992 -4.4645666,-1.133858 -6.7677163,0 -2.3031497,1.133859 -3.57874026,2.76378 -4.14566941,5.385827 -0.56692915,2.551182 0.70866144,5.740158 2.83464571,7.476379 2.0551182,1.665354 5.1377955,1.877953 7.618111,1.062992 2.444881,-0.814961 4.641732,-3.11811 5.562992,-5.527559 0.46063,-1.098426 0.744094,-1.594489 1.27559,-3.366142 0.56693,-1.771654 1.346457,-4.358268 1.948819,-6.555119 1.133859,-4.074803 2.692914,-7.759842 3.68504,-16.901575 0.07087,-0.602362 0.177165,-1.594488 0.283464,-2.728347 0.03543,-0.283464 0.177166,-0.318897 0.212599,-0.318897 0.425197,-0.03543 1.346457,0.708661 2.65748,1.700787 1.346457,0.992126 3.188977,2.30315 4.074803,2.905512 3.791339,2.586614 5.917323,5.740158 6.44882,9.354331 -0.212599,0.425197 -0.425197,0.885827 -0.637796,1.346457 -0.637795,1.38189 -0.708661,1.700787 -0.46063,1.84252 0.389764,0.248031 0.46063,0.212598 1.062993,-0.637796 0.03543,-0.07087 0.07087,-0.141732 0.106299,-0.212598 -0.106299,2.692913 -0.779528,4.889764 -2.515748,8.149607 -0.708662,1.311023 -0.779528,1.629921 -0.56693,1.771653 0.389764,0.283465 0.46063,0.248032 1.098426,-0.566929 1.913386,-2.515748 3.188976,-6.34252 3.401575,-10.346457 0.03543,-0.708662 0.03543,-1.311024 0.03543,-1.877953 0.81496,-2.232284 1.240157,-4.818898 1.240157,-7.476378 0,-2.515748 -0.354331,-4.03937 -1.027559,-5.633859 -0.95669,-2.19685 -3.188973,-5.137795 -6.094485,-8.185039 C 30.826773,9.9212602 29.338584,8.2913389 29.055119,7.9724413 26.964568,5.8110239 24.094489,2.8346458 23.562993,0.88582681 23.456694,0.53149608 20.76378,-0.03543307 20.055119,0.03543307 z M 24.34252,10.984252 c 0.496063,0.177166 1.346457,0.744095 2.444882,1.488189 1.38189,0.885827 3.295276,2.125985 4.216536,2.657481 4.570866,2.76378 6.980315,6.377953 7.192914,10.665355 0.07087,1.523622 -0.03543,2.834645 -0.389764,4.251968 -0.07087,-0.318897 -0.177166,-0.673228 -0.283465,-0.992126 -0.850394,-2.232283 -2.905512,-5.350394 -5.633858,-8.574803 -1.452756,-1.700788 -2.870079,-3.366142 -3.153544,-3.720473 -1.488189,-1.73622 -3.366142,-3.933071 -4.393701,-5.775591 z"
     id="path3031"
     style="fill:#ffffff;fill-opacity:1;fill-rule:nonzero;stroke:none" /></g><g
   transform="matrix(0.89332586,0,0,0.91250524,11.968517,-2.3126067)"
   id="g1408"><path
     d="m 44.235,9.8735 c -0.39833,0.040297 -0.73876,0.1918 -1,0.46875 2.9377,6.7609 4.0597,16.224 3.9062,21.469 -0.28735,9.7352 -1.2821,16.834 -2.7188,25.062 -1.4017,8.0285 -4.1905,15.295 -6.75,22.812 -1.8433,5.9936 -5.7294,0.008 -8.5,-1.2188 -3.9932,-1.7681 -7.5081,-1.8897 -11.375,0 -3.8669,1.8897 -6.0307,4.6766 -7,9.0625 -0.94752,4.2873 1.244,9.5983 4.8125,12.5 3.466,2.8183 8.5926,3.1968 12.75,1.875 4.1031,-1.421 7.8032,-5.2928 9.3438,-9.3125 0.78874,-1.8694 1.2535,-2.6967 2.1875,-5.6562 0.934,-2.9595 2.1804,-7.2966 3.2188,-11 1.911,-6.8157 4.5629,-13.026 6.2188,-28.375 0.37998,-3.0913 1.1503,-11.245 1.25,-18.531 0.01097,-0.80188 0.22508,-0.82187 0.34375,-0.84375 0.69872,-0.12881 2.3092,1.072 4.625,2.5938 2.3158,1.5218 5.5057,3.5561 7.0625,4.5 7.6444,4.635 11.7,10.651 12.062,17.875 0.25339,5.0457 -0.66705,8.959 -3.4688,15 -1.0576,2.2805 -1.1823,2.7972 -0.8125,3.0312 0.7037,0.4453 0.81696,0.37539 1.7812,-1.0312 3.0105,-4.3915 4.767,-10.958 4.75,-17.719 -0.01059,-4.2099 -0.6073,-6.7804 -1.75,-9.4375 -1.585,-3.6857 -5.3444,-8.647 -10.219,-13.781 -2.6001,-2.7388 -5.1323,-5.4154 -5.625,-5.9375 -3.464,-3.667 -8.283,-8.645 -9.176,-11.908 -0.175,-0.637 -4.723,-1.6154 -5.918,-1.4945 z"
     id="path1318"
     style="fill:#000000" /><path
     d="m 52.288,16.185 c 0.95389,9.296 6.5047,15.649 8.7914,17.126 0.67045,0.42757 1.4959,0.98888 1.875,1.2188 7.7936,4.7255 12.061,11.011 12.438,18.5 0.25907,5.1588 -0.73451,9.246 -3.5625,15.344 -0.41058,0.88531 -0.55086,1.3029 -0.6875,1.6875 0.13179,-0.1627 0.12687,-0.12114 0.34375,-0.4375 2.8872,-4.2117 4.6104,-10.655 4.5938,-17.281 -0.01044,-4.1519 -0.45396,-6.601 -1.6562,-9.0938 -0.13602,-0.282 -0.81826,-1.5648 -1.4688,-2.7812 -0.6505,-1.2165 -1.3005,-2.4003 -1.4375,-2.6562 -0.42149,-0.78755 -2.3185,-3.0277 -7.1875,-8.1562 -2.6008,-2.7394 -5.1301,-5.4132 -5.625,-5.9375 -2.1902,-2.3207 -5.0406,-5.0544 -6.4164,-7.5325 z"
     id="path3014"
     style="fill:url(#linearGradient1417-1-1)" /><g
     id="g1404"><path
       d="m 49.754,43.269 c 0.05596,-0.8 0.27085,-0.80795 0.39056,-0.82313 0.70486,-0.0894 2.2454,1.1999 4.4721,2.8492 2.2268,1.6494 5.2974,3.8595 6.7988,4.8893 7.3722,5.0567 11.084,11.291 11.04,18.524 -0.03019,5.0519 -1.1688,8.9074 -4.3051,14.782 -1.184,2.2176 -1.3374,2.7265 -0.98134,2.9809 0.6776,0.4841 0.7946,0.42065 1.8363,-0.92966 3.251,-4.216 5.374,-10.673 5.736,-17.425 0.226,-4.203 -0.226,-6.803 -1.217,-9.52 -1.376,-3.769 -4.851,-8.934 -9.43,-14.333 -2.442,-2.881 -4.82,-5.695 -5.282,-6.244 -3.253,-3.859 -7.785,-9.101 -8.494,-12.408 -0.139,-0.646 -1.074,24.927 -0.565,17.658 z"
       id="path1357"
       style="fill:#000000" /><path
       d="m 52.18,30.54 c 0.43066,9.3349 5.6162,15.989 7.8164,17.593 0.6454,0.46453 1.438,1.0713 1.8036,1.3221 7.5161,5.1554 11.424,11.671 11.38,19.169 -0.03087,5.1652 -1.2523,9.1902 -4.418,15.12 -0.45962,0.86087 -0.62312,1.2699 -0.78112,1.6463 0.14071,-0.15505 0.13347,-0.11382 0.36776,-0.41752 3.1191,-4.043 5.2011,-10.379 5.5564,-16.996 0.22259,-4.1459 -0.08276,-6.6161 -1.1433,-9.1724 -0.12,-0.29 -0.729,-1.609 -1.311,-2.86 -0.581,-1.251 -1.163,-2.47 -1.286,-2.733 -0.376,-0.81 -2.145,-3.153 -6.718,-8.547 -2.443,-2.881 -4.818,-5.692 -5.283,-6.244 -2.057,-2.439 -4.749,-5.329 -5.984,-7.88 z"
       id="path1363"
       style="fill:url(#linearGradient1419-7-0)" /></g><path
     d="m 25.388,92.791 c -4.1742,3.7595 -9.8358,4.2118 -12.637,1.0096 -2.8016,-3.2022 -1.6877,-8.8524 2.4866,-12.612 4.1742,-3.7595 9.8358,-4.2118 12.637,-1.0096 2.792,3.1912 1.6989,8.8113 -2.4458,12.575"
     id="path2279"
     style="fill:url(#radialGradient1421-9-8)" /><path
     d="m 45.143,10.307 c -0.29494,-0.02063 -0.56658,-0.0063 -0.9375,0.03125 -0.24914,0.0252 -0.37918,0.11756 -0.53125,0.21875 2.8721,6.8257 3.9656,16.048 3.8125,21.281 -0.288,9.7574 -1.2807,16.888 -2.7188,25.125 -1.4082,8.0658 -4.1024,15.22 -6.6562,22.719 0.36566,-0.3503 1.3185,-2.0473 1.8096,-3.5565 2.5428,-7.8134 4.3306,-11.074 6.7216,-26.037 -3.94e-4,-0.01041 -3.94e-4,-0.02084 0,-0.03125 l 0.0625,-0.25 c 0.0016,-0.01041 -0.0016,-0.02084 0,-0.03125 2.3045,-14.636 2.3353,-27.425 -0.71875,-39.281 -0.31883,-0.08182 -0.60877,-0.17107 -0.84375,-0.1875 z"
     id="path7829"
     style="fill:url(#linearGradient3069)" /></g></svg>