<?xml version="1.0" encoding="UTF-8" standalone="no"?>
<svg xmlns="http://www.w3.org/2000/svg" baseProfile="tiny" height="136.704" width="136.743" space="preserve" style="overflow:visible;enable-background:new 0 0 136.743 136.704;" version="1.1" viewBox="0 0 136.743 136.704">
  <defs/>
    <g>
    <path d="M136.743,68.33c0,34.835-27.326,64.902-62.045,68.094c-34.731,3.192-67.231-21.229-73.584-55.577   c-6.353-34.339,15.08-68.931,48.735-78.37c33.665-9.439,70.043,8.891,82.458,41.57C135.248,51.787,136.743,60.05,136.743,68.33" id="path5" style="fill:#5A9908;"/>
    <radialGradient cx="68.3564" cy="68.3291" gradientUnits="userSpaceOnUse" id="XMLID_2_" r="63.5498">
      <stop id="stop8" offset="0" style="stop-color:#D1F593"/>
      <stop id="stop10" offset="1" style="stop-color:#81CE09"/>
    </radialGradient>
    <path d="M131.906,68.33c0,34.631-28.917,63.549-63.549,63.549c-34.633,0-63.55-28.918-63.55-63.549   c0-34.633,28.917-63.55,63.55-63.55C102.989,4.78,131.906,33.696,131.906,68.33" id="path12" style="fill:url(#XMLID_2_);"/>
    <path d="M125.777,43.627c5.136,29.927-12.74,59.992-41.484,69.786   c-30.486,10.388-64.792-4.966-77.541-34.495c6.126,35.736,42.872,59.229,77.882,49.782   C120.784,118.943,140.677,78.097,125.777,43.627" id="path14" style="fill:#67BA06;"/>
    <path d="M108.049,40.118c-8.789,1.819-18.908-10.632-26.528-13.799C67.284,20.4,49.5,23.148,36.602,31.208   c-13.643,8.523-23.347,24.896-24.839,40.968c-0.005,0.046-0.005,0.056-0.002,0.025c1.008-9.733,0.328-18.882,4.034-28.29   c6.141-15.595,19.423-27.805,35.435-32.71c16.556-5.072,34.661-1.845,48.923,7.82C104.557,22.007,121.511,37.332,108.049,40.118" id="path16" style="fill:#B2ED21;"/>
    <path d="M52.656,37.577c0,17.675,0,35.348,0,53.022c0,5.399-2.216,15.433,5.681,15.813   c6.644,0.323,14.157-8.493,18.84-12.189c7.759-6.117,15.516-12.235,23.275-18.354c7.476-5.896,1.938-10.271-3.596-14.651   c-8.334-6.6-16.669-13.2-25.002-19.799c-2.684-2.125-5.366-4.25-8.049-6.374C61.108,32.907,52.656,32.571,52.656,37.577" id="path18" style="fill:#FFFFFF;"/>
    <path d="M54.657,33.564c-5.175,2.503-2.903,14.432-2.903,18.904c0,11.037,0,22.075,0,33.111   c0,4.376-2.163,16.078,1.398,19.72c6.829,6.98,17.41-4.71,22.374-8.624c8.074-6.369,16.148-12.736,24.224-19.104   c1.999-1.577,4.77-3.234,5.614-5.767c1.409-4.229-2.137-6.694-4.95-8.923c-7.932-6.279-15.861-12.561-23.795-18.84   C71.036,39.619,62.688,29.682,54.657,33.564 M55.619,104.86c-4.182-2.018-2.061-14.494-2.061-17.969c0-11.037,0-22.075,0-33.113   c0-3.473-2.082-14.782,0.62-17.698c5.79-6.25,16.196,5.314,20.227,8.507c7.833,6.204,15.67,12.406,23.503,18.61   c1.675,1.326,4.416,2.885,5.466,4.862c1.966,3.713-2.338,6.201-4.742,8.098c-7.71,6.079-15.421,12.159-23.131,18.24   C71.007,97.941,62.266,108.077,55.619,104.86" id="path20" style="fill:#739B07;"/>
  </g>
</svg>
