<svg xmlns:rdf="http://www.w3.org/1999/02/22-rdf-syntax-ns#" 
     xmlns="http://www.w3.org/2000/svg" 
     xmlns:osb="http://www.openswatchbook.org/uri/2009/osb" 
     xmlns:cc="http://creativecommons.org/ns#" 
     xmlns:xlink="http://www.w3.org/1999/xlink" 
     xmlns:dc="http://purl.org/dc/elements/1.1/"
     style="enable-background:new 0 0 135.828 135.788;" 
     height="136" width="136" version="1.1" viewBox="0 0 135.828 135.788" >  

<defs>   
<linearGradient id="linearGradient3840" y2="74.9" gradientUnits="userSpaceOnUse" x2="312" y1="74.9" x1="261">    
<stop stop-color="#BBB" offset="0"/>   
</linearGradient>   

<linearGradient id="linearGradient3846" y2="389" gradientUnits="userSpaceOnUse" x2="269" y1="389" x1="86.6">    
<stop stop-color="#000" offset="0"/>   
</linearGradient>   

<linearGradient id="linearGradient3858" y2="38.2" gradientUnits="userSpaceOnUse" x2="271" y1="38.2" x1="223">    
<stop stop-color="#000" offset="0"/>   
</linearGradient>   

<linearGradient id="linearGradient3016">    
<stop stop-color="#949494" offset="0"/>    
<stop stop-color="#949494" stop-opacity="0" offset="1"/>   
</linearGradient>   

<linearGradient id="linearGradient3090" y2="138" gradientUnits="userSpaceOnUse" y1="14.8" gradientTransform="translate(-1.35669,-6.4121)" x2="46.5" x1="46.5">    
<stop stop-color="#989898" offset="0"/>    
<stop stop-color="#989898" stop-opacity="0" offset="1"/>   
</linearGradient>   

<linearGradient id="linearGradient5707" y2="74.9" gradientUnits="userSpaceOnUse" x2="312" y1="74.9" x1="261">    
<stop stop-color="#000" offset="0"/>   
</linearGradient>  

<radialGradient id="radialGradient1421" gradientUnits="userSpaceOnUse" cy="98.4" cx="16.1" gradientTransform="matrix(2.277654,1.814482,-1.554691,2.313904,132.3066,-174.3013)" r="7.4">    
<stop stop-color="#989898" offset="0"/>    
<stop stop-color="#989898" stop-opacity="0" offset="1"/>   4
</radialGradient>   

<radialGradient id="radialGradient1717" gradientUnits="userSpaceOnUse" cy="67.9" cx="67.9" r="63.1">   
<stop stop-color="#D1F593" offset="0"/>   
<stop stop-color="#81CE09" offset="1"/>  
</radialGradient>  

<linearGradient id="linearGradient1417" y2="105" gradientUnits="userSpaceOnUse" y1="27.3" gradientTransform="translate(-13.32707,-18.22025)" x2="103" x1="57.1">   
<stop stop-color="#949494" offset="0"/>    
<stop stop-color="#949494" stop-opacity="0" offset="1"/>   
</linearGradient>  

<linearGradient id="linearGradient1419" y2="105" gradientUnits="userSpaceOnUse" y1="27.3" gradientTransform="matrix(0.998424,0.05612358,-0.05612358,0.998424,-11.4001,-7.493561)" x2="103" x1="57.1">   
<stop stop-color="#949494" offset="0"/>    
<stop stop-color="#949494" stop-opacity="0" offset="1"/>   
</linearGradient>  


</defs>  
<path fill="#5A9908" d="M0,67.9c0,34.6,27.1,64.5,61.6,67.6,34.5,3.17,66.8-21.1,73.1-55.2,6.31-34.1-15-68.5-48.4-77.8-33.4-9.38-69.6,8.83-81.9,41.3-3.22,7.1-4.7,15.3-4.7,23.6"/>  


<path fill="url(#radialGradient1717)" d="M4.8,67.9c0,34.4,28.7,63.1,63.1,63.1s63.1-28.7,63.1-63.1-28.7-63.1-63.1-63.1-63.1,28.7-63.1,63.1"/>  
<path fill="#67BA06" d="M10.9,43.3c-5.1,29.7,12.7,59.6,41.2,69.3,30.3,10.3,64.4-4.93,77-34.3-6.09,35.5-42.6,58.8-77.4,49.4-35.7-10-55.5-50.4-40.7-84.7"/>  
<path fill="#B2ED21" d="M28.5,39.8c8.73,1.81,18.8-10.6,26.4-13.7,14.1-5.88,31.8-3.15,44.6,4.86,13.6,8.47,23.2,24.7,24.7,40.7,0.004,0.047,0.004,0.055,0,0.024-1-9.67-0.325-18.8-4.01-28.1-6.1-15.5-19.3-27.6-35.2-32.5-16.4-5.04-34.4-1.83-48.6,7.77-4.2,3-21.1,18.2-7.7,20.9"/>  
<path stroke-linejoin="miter" d="M109,625l63,96c20-29,67-47,94-41,32-23,69-19,79-10l-73-96s-51-14-71,16c-37-16-82,10-92,35z" fill-rule="evenodd" stroke="#000" stroke-linecap="butt" stroke-miterlimit="4.0000000" stroke-width="5.0000000" fill="#000"/>  
<path stroke-linejoin="miter" d="M117,612l55,84c22-41,67-59,89-33,35-49,76,0,80,0l-74-100s-48-22-69,8c-20-16-69,5-81,41z" fill-rule="evenodd" stroke="#000" stroke-linecap="butt" stroke-miterlimit="4.0000000" stroke-width="5.0000000" fill="#FFF"/>  
<path stroke-linejoin="miter" d="M200,572l63,85c8,13-9,35,26,49" stroke="#000" stroke-linecap="butt" stroke-miterlimit="4.0000000" stroke-width="5.0000000" fill="none"/>  

<g fill="none" stroke="url(#linearGradient3846)" transform="matrix(0.6869682,0,0,0.69262744,-51.525057,-199.97886)">   
<path d="m89.3,345,0,89.1" stroke-width="5.28575038999999960"/>   
<path stroke-linejoin="miter" d="m89.3,346,177,0.72" stroke-linecap="butt" stroke-width="1pt"/>   
<path stroke-linejoin="miter" d="M90.7,367,268,368" stroke-linecap="butt" stroke-width="1pt"/>   
<path stroke-linejoin="miter" d="m91.4,389,177,0.72" stroke-linecap="butt" stroke-width="1pt"/>   
<path stroke-linejoin="miter" d="m89.6,411,177,0.72" stroke-linecap="butt" stroke-width="1pt"/>   
<path stroke-linejoin="miter" d="m90.3,433,177,0.72" stroke-linecap="butt" stroke-width="1pt"/>  
</g>  

<g stroke="url(#linearGradient3858)" transform="matrix(0.61645776,0,0,0.69262744,-64.049148,40.558607)">
</g>  

<g fill="url(#linearGradient5707)" stroke="url(#linearGradient3840)" transform="matrix(0.5591303,0,0,0.63689381,-131.49536,27.661463)">   
<path d="m39.5,140c0.0219,8.47,18.8,7.39,18.8-6.57,0-13-18-88.8-18.2-103-0.2-11.5,6.2-24.5,11.6-24.4,4.3,0.141,8.34,9.87,8.32,22,0.326,39.2-34,36.6-34,63.4,0,17.3,14.4,21.9,21.5,21.9,24.4,0,20.3-28.9,4.8-28.9-9.1-0.3-17.1,12.1-5.1,21.9-20.4-8.5-9.4-30.2,6.7-30.4,21.6,0.2,25.3,39.4-6.3,39.4-19,1-27-16-26.8-29.1,0-25.1,37.1-39.6,36.6-60.9,0-13.4-13.9-7.34-14.2,14.2,0.326,13.4,17.6,84.1,17.5,95,0,22.5-28.9,15.2-28.9,3.75,0.163-16.3,17-4.73,11.8-4.24-4.08,7.18-3.95,7.74-3.95,7.74z" transform="translate(240.6734,-1.668482)" stroke-width="1"/>   
<path d="m47.4,133c0,3.79-3.16,6.86-7.05,6.86s-7.05-3.08-7.05-6.86c0-3.79,3.16-6.87,7.05-6.87s7.05,3.08,7.05,6.87z" transform="translate(240.6734,-1.668482)" stroke-width="1"/>   
<path d="m55,111,2.31,0,0,2.25-2.31,0,0-2.25z" transform="translate(240.6734,-1.668482)"/>   
<path d="m48.3,75.7,2.94,0,0,7.31-2.94,0,0-7.31z" transform="translate(240.6734,-1.668482)"/>   
<path d="m43.1,48.5,1.39-0.24,1.96,12.9-1.39,0.24-1.96-12.9z" transform="translate(240.6734,-1.668482)"/>  
</g>  

<g transform="matrix(0.51470921,0,0,0.50708646,44.442218,54.069086)">   
<path d="m44.2,9.87c-0.398,0.0403-0.739,0.192-1,0.469,2.94,6.76,4.06,16.2,3.91,21.5-0.287,9.74-1.28,16.8-2.72,25.1-1.4,8.03-4.19,15.3-6.75,22.8-1.84,5.99-5.73,0.008-8.5-1.22-3.99-1.77-7.51-1.89-11.4,0-3.87,1.89-6.03,4.68-7,9.06-0.948,4.29,1.24,9.6,4.81,12.5,3.47,2.82,8.59,3.2,12.8,1.88,4.1-1.42,7.8-5.29,9.34-9.31,0.789-1.87,1.25-2.7,2.19-5.66,0.934-2.96,2.18-7.3,3.22-11,1.91-6.82,4.56-13,6.22-28.4,0.38-3.09,1.15-11.2,1.25-18.5,0.011-0.802,0.225-0.822,0.344-0.844,0.699-0.129,2.31,1.07,4.62,2.59,2.32,1.52,5.51,3.56,7.06,4.5,7.64,4.64,11.7,10.7,12.1,17.9,0.253,5.05-0.667,8.96-3.47,15-1.06,2.28-1.18,2.8-0.812,3.03,0.704,0.445,0.817,0.375,1.78-1.03,3.01-4.39,4.77-11,4.75-17.7-0.0106-4.21-0.607-6.78-1.75-9.44-1.59-3.69-5.34-8.65-10.2-13.8-2.6-2.74-5.13-5.42-5.62-5.94-3.3-3.9-8.2-8.9-9-12.1-0.2-0.7-4.8-1.65-6-1.53z" fill="#000"/>   
<path d="m52.3,16.2c0.954,9.3,6.5,15.6,8.79,17.1,0.67,0.428,1.5,0.989,1.88,1.22,7.79,4.73,12.1,11,12.4,18.5,0.259,5.16-0.735,9.25-3.56,15.3-0.411,0.885-0.551,1.3-0.688,1.69,0.132-0.163,0.127-0.121,0.344-0.438,2.89-4.21,4.61-10.7,4.59-17.3-0.0104-4.15-0.454-6.6-1.66-9.09-0.136-0.282-0.818-1.56-1.47-2.78-0.65-1.22-1.3-2.4-1.44-2.66-0.421-0.788-2.32-3.03-7.19-8.16-2.6-2.74-5.13-5.41-5.62-5.94-2.19-2.32-5.04-5.05-6.42-7.53z" fill="url(#linearGradient1417)"/>   
<path d="m49.8,43.3c0.056-0.8,0.271-0.808,0.391-0.823,0.705-0.0894,2.25,1.2,4.47,2.85,2.23,1.65,5.3,3.86,6.8,4.89,7.37,5.06,11.1,11.3,11,18.5-0.0302,5.05-1.17,8.91-4.31,14.8-1.18,2.22-1.34,2.73-0.981,2.98,0.678,0.484,0.795,0.421,1.84-0.93,3.3-4.4,5.4-10.8,5.7-17.6,0.3-4.2-0.2-6.8-1.2-9.5-1.4-3.8-4.8-8.9-9.4-14.3-2.4-2.9-4.8-5.7-5.3-6.3-3.2-3.8-7.8-9.1-8.5-12.4-0.1-0.6-1.1,24.9-0.5,17.7z" fill="#000"/>   
<path d="m52.2,30.5c0.431,9.33,5.62,16,7.82,17.6,0.645,0.465,1.44,1.07,1.8,1.32,7.52,5.16,11.4,11.7,11.4,19.2-0.0309,5.17-1.25,9.19-4.42,15.1-0.46,0.861-0.623,1.27-0.781,1.65,0.141-0.155,0.133-0.114,0.368-0.418,3.12-4.04,5.2-10.4,5.56-17,0.223-4.15-0.0828-6.62-1.14-9.17-0.3-0.3-0.9-1.6-1.4-2.9-0.6-1.2-1.2-2.4-1.3-2.7-0.4-0.8-2.2-3.1-6.8-8.5-2.4-2.9-4.8-5.7-5.2-6.3-2.1-2.4-4.8-5.3-6-7.9z" fill="url(#linearGradient1419)"/>   
<path fill="url(#radialGradient1421)" d="m25.4,92.8c-4.17,3.76-9.84,4.21-12.6,1.01-2.8-3.2-1.69-8.85,2.49-12.6,4.17-3.76,9.84-4.21,12.6-1.01,2.79,3.19,1.7,8.81-2.45,12.6"/>   
<path d="m45.1,10.3c-0.295-0.0206-0.567-0.0063-0.938,0.0312-0.249,0.0252-0.379,0.118-0.531,0.219,2.87,6.83,3.97,16,3.81,21.3-0.288,9.76-1.28,16.9-2.72,25.1-1.41,8.07-4.1,15.2-6.66,22.7,0.366-0.35,1.32-2.05,1.81-3.56,2.54-7.81,4.33-11.1,6.72-26-0.000394-0.0104-0.000394-0.0208,0-0.0312l0.0625-0.25c0.0016-0.0104-0.0016-0.0208,0-0.0312,2.3-14.6,2.34-27.4-0.719-39.3-0.319-0.0818-0.609-0.171-0.844-0.188z" fill="url(#linearGradient3090)"/>  
</g>  

<g transform="matrix(0.51470921,0,0,0.50708646,85.738568,25.604937)">   
<path d="m44.2,9.87c-0.398,0.0403-0.739,0.192-1,0.469,2.94,6.76,4.06,16.2,3.91,21.5-0.287,9.74-1.28,16.8-2.72,25.1-1.4,8.03-4.19,15.3-6.75,22.8-1.84,5.99-5.73,0.008-8.5-1.22-3.99-1.77-7.51-1.89-11.4,0-3.87,1.89-6.03,4.68-7,9.06-0.948,4.29,1.24,9.6,4.81,12.5,3.47,2.82,8.59,3.2,12.8,1.88,4.1-1.42,7.8-5.29,9.34-9.31,0.789-1.87,1.25-2.7,2.19-5.66,0.934-2.96,2.18-7.3,3.22-11,1.91-6.82,4.56-13,6.22-28.4,0.38-3.09,1.15-11.2,1.25-18.5,0.011-0.802,0.225-0.822,0.344-0.844,0.699-0.129,2.31,1.07,4.62,2.59,2.32,1.52,5.51,3.56,7.06,4.5,7.64,4.64,11.7,10.7,12.1,17.9,0.253,5.05-0.667,8.96-3.47,15-1.06,2.28-1.18,2.8-0.812,3.03,0.704,0.445,0.817,0.375,1.78-1.03,3.01-4.39,4.77-11,4.75-17.7-0.0106-4.21-0.607-6.78-1.75-9.44-1.59-3.69-5.34-8.65-10.2-13.8-2.6-2.74-5.13-5.42-5.62-5.94-3.3-3.9-8.2-8.9-9-12.1-0.2-0.7-4.8-1.65-6-1.53z" fill="#000"/>   
<path d="m52.3,16.2c0.954,9.3,6.5,15.6,8.79,17.1,0.67,0.428,1.5,0.989,1.88,1.22,7.79,4.73,12.1,11,12.4,18.5,0.259,5.16-0.735,9.25-3.56,15.3-0.411,0.885-0.551,1.3-0.688,1.69,0.132-0.163,0.127-0.121,0.344-0.438,2.89-4.21,4.61-10.7,4.59-17.3-0.0104-4.15-0.454-6.6-1.66-9.09-0.136-0.282-0.818-1.56-1.47-2.78-0.65-1.22-1.3-2.4-1.44-2.66-0.421-0.788-2.32-3.03-7.19-8.16-2.6-2.74-5.13-5.41-5.62-5.94-2.19-2.32-5.04-5.05-6.42-7.53z" fill="url(#linearGradient1417)"/>   
<path d="m49.8,43.3c0.056-0.8,0.271-0.808,0.391-0.823,0.705-0.0894,2.25,1.2,4.47,2.85,2.23,1.65,5.3,3.86,6.8,4.89,7.37,5.06,11.1,11.3,11,18.5-0.0302,5.05-1.17,8.91-4.31,14.8-1.18,2.22-1.34,2.73-0.981,2.98,0.678,0.484,0.795,0.421,1.84-0.93,3.3-4.4,5.4-10.8,5.7-17.6,0.3-4.2-0.2-6.8-1.2-9.5-1.4-3.8-4.8-8.9-9.4-14.3-2.4-2.9-4.8-5.7-5.3-6.3-3.2-3.8-7.8-9.1-8.5-12.4-0.1-0.6-1.1,24.9-0.5,17.7z" fill="#000"/>   
<path d="m52.2,30.5c0.431,9.33,5.62,16,7.82,17.6,0.645,0.465,1.44,1.07,1.8,1.32,7.52,5.16,11.4,11.7,11.4,19.2-0.0309,5.17-1.25,9.19-4.42,15.1-0.46,0.861-0.623,1.27-0.781,1.65,0.141-0.155,0.133-0.114,0.368-0.418,3.12-4.04,5.2-10.4,5.56-17,0.223-4.15-0.0828-6.62-1.14-9.17-0.3-0.3-0.9-1.6-1.4-2.9-0.6-1.2-1.2-2.4-1.3-2.7-0.4-0.8-2.2-3.1-6.8-8.5-2.4-2.9-4.8-5.7-5.2-6.3-2.1-2.4-4.8-5.3-6-7.9z" fill="url(#linearGradient1419)"/>   
<path fill="url(#radialGradient1421)" d="m25.4,92.8c-4.17,3.76-9.84,4.21-12.6,1.01-2.8-3.2-1.69-8.85,2.49-12.6,4.17-3.76,9.84-4.21,12.6-1.01,2.79,3.19,1.7,8.81-2.45,12.6"/>   
<path d="m45.1,10.3c-0.295-0.0206-0.567-0.0063-0.938,0.0312-0.249,0.0252-0.379,0.118-0.531,0.219,2.87,6.83,3.97,16,3.81,21.3-0.288,9.76-1.28,16.9-2.72,25.1-1.41,8.07-4.1,15.2-6.66,22.7,0.366-0.35,1.32-2.05,1.81-3.56,2.54-7.81,4.33-11.1,6.72-26-0.000394-0.0104-0.000394-0.0208,0-0.0312l0.0625-0.25c0.0016-0.0104-0.0016-0.0208,0-0.0312,2.3-14.6,2.34-27.4-0.719-39.3-0.319-0.0818-0.609-0.171-0.844-0.188z" fill="url(#linearGradient3090)"/>  
</g> 

</svg> 