<?xml version="1.0" encoding="UTF-8" standalone="no"?>
<!DOCTYPE svg PUBLIC "-//W3C//DTD SVG 1.1 Tiny//EN" "http://www.w3.org/Graphics/SVG/1.1/DTD/svg11-tiny.dtd">
<svg xmlns="http://www.w3.org/2000/svg" baseProfile="tiny" height="135.78799" style="overflow:visible" version="1.1" viewBox="0 0 135.828 135.788" width="135.828">
<defs/>
<g>
<path d="m 0,67.872 c 0,34.604 27.145,64.467 61.629,67.638 34.499,3.172 66.779,-21.087 73.093,-55.204 C 141.031,46.197 119.74,11.837 86.312,2.462 52.872,-6.916 16.737,11.293 4.406,43.753 1.485,51.44 0,59.648 0,67.872" style="fill:#5a9908"/>
<radialGradient cx="67.9282" cy="67.869598" gradientUnits="userSpaceOnUse" id="XMLID_2_" r="63.123501">
<stop offset="0" style="stop-color:#d1f593;stop-opacity:1"/>
<stop offset="1" style="stop-color:#81ce09;stop-opacity:1"/>
</radialGradient>
<path d="m 4.805,67.872 c 0,34.4 28.723,63.122 63.124,63.122 34.4,0 63.123,-28.722 63.123,-63.122 0,-34.401 -28.721,-63.125 -63.123,-63.125 -34.402,0 -63.124,28.724 -63.124,63.125" style="fill:url(#XMLID_2_)"/>
<path d="m 10.892,43.334 c -5.097,29.729 12.654,59.589 41.207,69.317 30.282,10.318 64.357,-4.932 77.021,-34.264 -6.086,35.498 -42.582,58.835 -77.36,49.449 C 15.851,118.147 -3.905,77.572 10.892,43.334" style="fill:#67ba06"/>
<path d="m 28.502,39.848 c 8.729,1.808 18.781,-10.559 26.351,-13.707 14.141,-5.877 31.806,-3.147 44.617,4.857 13.551,8.467 23.19,24.729 24.673,40.692 0.004,0.047 0.004,0.055 0,0.024 -1.001,-9.667 -0.325,-18.753 -4.006,-28.098 C 114.037,28.126 100.845,15.997 84.941,11.124 68.495,6.086 50.512,9.292 36.345,18.893 31.97,21.858 15.131,37.081 28.502,39.848" style="fill:#b2ed21"/>
</g>
<g transform="matrix(0.54145171,0,0,0.577131,-51.968023,-297.20405)">
<path d="m 108.91824,624.83263 63.1115,95.68518 c 20.35855,-28.50197 67.18323,-46.82467 93.64935,-40.71711 32.57368,-22.3944 69.21906,-18.3227 79.39834,-10.17927 l -73.29078,-95.68519 c 0,0 -50.89638,-14.25098 -71.25493,16.28685 -36.64539,-16.28685 -81.43421,10.17927 -91.61348,34.60954 z" style="fill:#000000;fill-opacity:1;fill-rule:evenodd;stroke:#000000;stroke-width:5;stroke-linecap:butt;stroke-linejoin:miter;stroke-miterlimit:4;stroke-opacity:1"/>
<path d="m 116.72056,612.20892 54.96808,83.47005 c 22.39441,-40.7171 67.18322,-59.0398 89.57763,-32.57368 34.60954,-48.86052 75.32663,0 79.39834,0 L 267.37384,563.3484 c 0,0 -48.86053,-22.39441 -69.21908,8.14342 -20.35855,-16.28685 -69.21908,4.0717 -81.4342,40.7171 z" style="fill:#ffffff;fill-opacity:1;fill-rule:evenodd;stroke:#000000;stroke-width:5;stroke-linecap:butt;stroke-linejoin:miter;stroke-miterlimit:4;stroke-opacity:1"/>
<path d="m 199.51379,571.9004 63.11151,85.50591 c 8.14342,12.21513 -8.14342,34.60954 26.46612,48.86052" style="fill:none;stroke:#000000;stroke-width:5;stroke-linecap:butt;stroke-linejoin:miter;stroke-miterlimit:4;stroke-opacity:1"/>
</g>
</svg>
