<?xml version="1.0" encoding="UTF-8" standalone="no"?>
<!DOCTYPE svg PUBLIC "-//W3C//DTD SVG 1.1 Tiny//EN" "http://www.w3.org/Graphics/SVG/1.1/DTD/svg11-tiny.dtd">
<svg xmlns="http://www.w3.org/2000/svg" baseProfile="tiny" height="100%" style="enable-background:new 0 0 135.828 135.788;" version="1.1" viewBox="0 0 135.828 135.788" width="100%">
<path d="M0,67.872c0,34.604,27.145,64.467,61.629,67.638,34.499,3.172,66.779-21.087,73.093-55.204,6.309-34.109-14.982-68.469-48.41-77.844-33.44-9.378-69.575,8.831-81.906,41.291-2.919,7.687-4.404,15.895-4.404,24.119" fill="#5A9908"/>
<radialGradient cx="67.928" cy="67.87" gradientUnits="userSpaceOnUse" id="XMLID_2_" r="63.124">
<stop offset="0" stop-color="#D1F593"/>
<stop offset="1" stop-color="#81CE09"/>
</radialGradient>
<path d="M4.805,67.872c0,34.4,28.723,63.122,63.124,63.122,34.4,0,63.123-28.722,63.123-63.122,0-34.401-28.721-63.125-63.123-63.125s-63.122,28.728-63.122,63.129" fill="url(#XMLID_2_)"/>
<path d="M10.892,43.334c-5.097,29.729,12.654,59.589,41.207,69.317,30.282,10.318,64.357-4.932,77.021-34.264-6.086,35.498-42.582,58.835-77.36,49.449-35.909-9.69-55.665-50.268-40.868-84.506" fill="#67BA06"/>
<path d="M28.502,39.848c8.729,1.808,18.781-10.559,26.351-13.707,14.141-5.877,31.806-3.147,44.617,4.857,13.551,8.467,23.19,24.729,24.673,40.692,0.004,0.047,0.004,0.055,0,0.024-1.001-9.667-0.325-18.753-4.006-28.098-6.1-15.49-19.292-27.619-35.196-32.492-16.446-5.038-34.429-1.832-48.596,7.769-4.368,2.965-21.207,18.188-7.836,20.955" fill="#B2ED21"/>
<g fill="#000" fill-rule="evenodd" transform="matrix(0.1918903,0,0,0.11879346,18.81845,7.6887968)">
<path d="m120.06,98.837c-5.7958,2.6495-17.437,9.3727-27.505,11.873-10.068,2.5005-8.5943,1.1261-26.76-9.4885-18.164-10.613-25.185-13.709-25.185-13.709s23.382-16.295,41.945-17.073c18.563-0.77834,29.956-0.38095,38.401,2.7653,8.4453,3.1463,4.9016,22.984-0.89414,25.634z"/>
<path d="m432.14,594.51s-35.354-8.3624-57.395-30.519c-22.041-22.156-33.914-49.662-32.241-56.733,1.6726-7.0709,6.2926-16.891,13.413-16.642,7.1205,0.24837,28.532-0.43062,45.273,10.134,59.995,37.739,60.475,64.847,55.756,77.515-4.7194,12.668-7.7167,16.841-7.7167,16.841s13.016-5.2494,12.039-18.116c-0.97701-12.867,0.89413-25.634-14.225-41.846s-35.934-32.622-35.934-32.622,19.888,2.1195,35.354,8.3624c15.467,6.2429,15.616,1.9705,21.064,9.2898,5.4481,7.3193-2.7489-2.9476-5.9448,6.9219-3.196,9.8694,0.57959,24.26,4.6532,30.105,4.0736,5.8455,9.5714,11.741,15.467,6.2428,5.8952-5.4977,4.9181-18.364,4.9181-18.364s-9.2236-21.709-16.096-29.078c-6.8722-7.3689-9.5714-11.741-9.5714-11.741s17.868,19.159,23.216,29.327c5.3488,10.167,10.499,26.031,4.3553,38.65-6.1436,12.618-7.8657,21.113-12.237,23.812-4.3717,2.6992-14.44,5.1997-22.985,4.9017-8.5446-0.29805-21.163-6.4416-21.163-6.4416z"/>
<path d="m440.98,606.03s-9.2532-0.32277-14.228,9.4846c-4.9743,9.8074-28.85,74.563-31.336,101.57-2.486,27.004-11.633,156.44-13.722,172.05-2.0885,15.611-0.79249,66.987-10.542,80.905-9.75,13.918,13.322-204.86,19.29-243.15,5.9679-38.29,18.452-86.333,28.5-108.8,10.048-22.463-22.336,20.609-29.151,38.907-6.8146,18.298,7.4108-35.388-0.10155-41.353-7.5123-5.9654-12.437,2.4179-22.584,27.729s-24.867,137.44-32.826,144.29c-7.9594,6.8516-8.5601-64.462,7.0088-112.4,15.569-47.936,31.088-94.447,31.088-94.447s-45.623-64.329-39.305-68.386c6.3179-4.0572,0.89645,18.567,24.678,45.062,23.781,26.495,37.462,32.675,52.686,38.91,15.223,6.2344,30.546,9.6206,30.546,9.6206z"/>
<path d="m353.17,978.16s-6.3918,19.739-22.355,27.737c-15.963,7.9983-30.602,18.894-28.929,11.824,1.6724-7.0709,22.007-17.768,23.73-26.263,1.7222-8.495-17.951-180.28-3.3785-148.41,2.1199,102.73,15.169,137.41,20.865,137.61,5.6964,0.19869,10.068-2.5005,10.068-2.5005z"/>
<path d="m221.8,146.59-15.642,427.21s7.482-150.82,10.504-216.24c3.0225-65.423,5.1375-210.97,5.1375-210.97z"/>
<path d="m226.6,172.42-15.642,427.21s7.482-150.82,10.504-216.24c3.02-65.43,5.14-210.97,5.14-210.97z"/>
<path d="m235.46,111.42-16.669,427.17s10.563-150.71,14.612-216.1c4.0494-65.387,2.0569-211.07,2.0569-211.07z"/>
<path d="m291.41,428.48-13.589,338.88s9.4749-119.53,13.052-171.39c3.5775-51.861,0.53659-167.49,0.53659-167.49z"/>
<path d="m282.78,411.07-12.904,338.9s7.4212-119.6,10.314-171.48c2.893-51.885,2.5904-167.42,2.5904-167.42z"/>
<path d="m239.29,952.4s-18.547,11.452-23.325-25.011c-4.7775-36.463-4.5434-100.98-4.5434-100.98s-43.043-37.797-25.269-27.095c17.775,10.702,29.507,21.194,29.507,21.194s-19.718-12.786-15.409-20.702c4.309-7.9155,15.831,8.618,15.831,8.618l-0.16421-110.91s-2.8803,82.574-13.489,39.858c-10.609-42.715-10.96-32.645-1.6395-68.616s24.894-77.773,26.51-124.1c1.6158-46.322,16.37,50.982,3.232,80.771-13.138,29.788-24.472,65.689-24.472,65.689s36.158-111.66,30.023-51.38c-6.1355,60.279-16.182,174.87-16.182,174.87s-15.69-12.646-7.9858-2.295c7.7047,10.351,9.508,16.463,9.508,16.463s-2.9975,28.126-3.7,48.266c-0.70252,20.14-1.686,48.336,5.9485,60.701s15.62,14.66,15.62,14.66z"/>
<path d="m128.27,88.562s5.5007,9.0034,17.5-1.5925,36.611-49.389,44.432-51.32c7.8203-1.9301,25.474-7.923,44.602-0.64712,19.129,7.2759,30.207,23.083,31.759,34.151,1.5522,11.069,14.413,31.343,10.387,35.609-4.0253,4.2654-6.4389-37.674-23.478-49.283s-28.424-18.615-42.052-16.887c-13.628,1.7275-37.703,25.12-49.779,37.916s-33.371,12.053-33.371,12.053z"/>
<path d="m251.22,696.9s-0.1644-41.005,7.5954-34.877c7.7596,6.1276,15.519,12.255,4.9426,41.171-10.577,28.916-11.801,64.015-2.8169,35.044,8.9839-28.972,21.154-57.832,18.008-104.8-3.1459-46.966-33.692,51.538-29.078,10.7,4.6139-40.838,19.929-22.733,22.746-57.777,2.8171-35.044,4.1661,17.716,8.6949-157.84,4.5288-175.55-0.41392-216.72,0.238-281.13,0.6518-64.404-20.706-0.72226-15.151,22.899,5.5548,23.622,4.8179-46.688,6.5751-5.6276s7.4763,105.69,5.2317,170.04c-2.2446,64.349-13.966,34.655-15.395,75.604-1.4284,40.949-6.7792,11.478,2.7774,11.811,9.5564,0.33334,11.149,0.3889,5.107,82.176-6.0421,81.787-30.342,92.654-28.788,139.56,1.5531,46.91,9.3128,53.038,9.3128,53.038z"/>
<path d="m356.29,450.14s-18.32,3.0984-22.57,9.1449c-4.2501,6.0465-8.6908,10.527-11.212,20.543-2.5206,10.016-0.80555,24.111-0.80555,24.111s0.80555-24.111,7.1808-33.181c6.3753-9.0698,20.079-19.379,27.407-20.618z"/>
<path d="m282.63,688.39s-4.0409,26.83,4.6406,28.407c8.6814,1.5769,15.982-8.7354,5.4718,16.307-10.511,25.043-27.607,81.967-29.436,108.59-1.829,26.62,6.9027,59.445,0.48355,88.907-6.4192,29.461-14.854-135.62-7.0537-153.19,7.7997-17.572,13.438-3.6847,17.645-32.935,4.2073-29.25,8.2482-56.081,8.2482-56.081z"/>
<path d="m221.09,953.78s5.3395,20.351,15.62,14.66c10.281-5.6908,21.194-29.507,22.716-15.339,1.5223,14.168,20.468,49.109,28.243,57.446,7.775,8.3369,1.3818,18.196-24.168-0.843s-39.367-27.587-42.411-55.924z"/>
<path d="m125.94,97.506s17.915,6.6743,34.378-2.8337,37.657-39.015,47.376-28.594c9.7187,10.421,29.718,15.152,32.973,37.446,3.2552,22.294,15.948,63.066,8.0797,115.22-7.8685,52.153,9.7424,125.36-1.1706,149.18-10.913,23.817-6.1829-169.6-3.5367-187.65,2.6463-18.056-5.4567-74.799-13.021-89.178-7.5642-14.379-11.522-16.533-27.704-15.082-16.182,1.452-37.165,24.917-47.235,24.566-10.07-0.35125-30.14-3.0678-30.14-3.0678z"/>
<path d="m195.5,531.45-14.659,362.45s0.11723,54.448,31.358,83.768c31.24,29.32,47.212,33.91,47.212,33.91s-32.294,0.8899-50.818-46.135c-18.524-47.024-22.131-59.249-20.445-107.58,1.686-48.336,7.3526-326.41,7.3526-326.41z"/>
<path d="m329.13,513.21,8.1168,31.958s-40.91,208.43-36.963,128.77c3.9475-79.656,24.738-101.06,27.177-123.73,2.4387-22.669,1.6689-36.995,1.6689-36.995z"/>
<path d="m263.87,193.28s10.863,97.336,30.105,117.97c19.242,20.633-5.6964-0.1987-3.5437,19.838,2.1528,20.037,37.59,66.9,10.201,34.576s-36.762-172.38-36.762-172.38z"/>
<path d="m453.56,614.15s23.981,0.0773,30.727-6.8972c6.7462-6.9746,13.387-11.851,18.815-24.427,5.4284-12.576,6.3767-31.463,6.3767-31.463s-6.3767,31.463-16.496,41.925-29.831,20.893-39.423,20.862z"/>
</g>
</svg>
